<svg xmlns="http://www.w3.org/2000/svg" xmlns:xlink="http://www.w3.org/1999/xlink" width="66" height="66" viewBox="-3.5 -5 66 66">
  <metadata><?xpacket begin="﻿" id="W5M0MpCehiHzreSzNTczkc9d"?>
<x:xmpmeta xmlns:x="adobe:ns:meta/" x:xmptk="Adobe XMP Core 5.6-c138 79.159824, 2016/09/14-01:09:01        ">
   <rdf:RDF xmlns:rdf="http://www.w3.org/1999/02/22-rdf-syntax-ns#">
      <rdf:Description rdf:about=""/>
   </rdf:RDF>
</x:xmpmeta>
                                                                                                    
                                                                                                    
                                                                                                    
                                                                                                    
                                                                                                    
                                                                                                    
                                                                                                    
                                                                                                    
                                                                                                    
                                                                                                    
                                                                                                    
                                                                                                    
                                                                                                    
                                                                                                    
                                                                                                    
                                                                                                    
                                                                                                    
                                                                                                    
                                                                                                    
                                                                                                    
                           
<?xpacket end="w"?></metadata>
<defs>
    <style>
      .cls-1 {
        fill: none;
      }

      .cls-2 {
        fill-rule: evenodd;
      }

      .cls-3 {
        fill: #e54357;
      }
    </style>
    <clipPath id="clip-path">
      <rect width="59" height="56"/>
    </clipPath>
  </defs>
  <g clip-path="url(#clip-path)">
    <rect class="cls-1" x="43" y="18" width="15" height="37"/>
    <path class="cls-2" d="M1.486,25.189A1.487,1.487,0,0,0,0,26.679V54.51A1.487,1.487,0,0,0,1.486,56H15.058a1.487,1.487,0,0,0,1.486-1.49V26.679a1.487,1.487,0,0,0-1.486-1.49H1.486Zm12.085,27.83H2.961V28.158H13.572V53.019Zm43.942,2.968A1.487,1.487,0,0,0,59,54.5V18.792a1.487,1.487,0,0,0-1.486-1.49H43.942a1.487,1.487,0,0,0-1.486,1.49V54.51A1.487,1.487,0,0,0,43.942,56H57.514V55.988ZM45.428,20.282H56.039V53.032H45.428V20.282h0Z"/>
    <rect class="cls-3" x="23" y="1" width="13" height="53"/>
    <path id="Shape_1_copy" data-name="Shape 1 copy" class="cls-2" d="M21.234,1.49V54.51A1.487,1.487,0,0,0,22.72,56H36.292a1.487,1.487,0,0,0,1.486-1.49V1.49A1.487,1.487,0,0,0,36.292,0H22.708A1.493,1.493,0,0,0,21.234,1.49Zm2.961,1.49H34.805V53.032H24.195V2.981h0Z"/>
  </g>
</svg>
