<svg xmlns="http://www.w3.org/2000/svg" xmlns:xlink="http://www.w3.org/1999/xlink" width="66" height="66" viewBox="-12 -5 66 66">
  <metadata><?xpacket begin="﻿" id="W5M0MpCehiHzreSzNTczkc9d"?>
<x:xmpmeta xmlns:x="adobe:ns:meta/" x:xmptk="Adobe XMP Core 5.6-c138 79.159824, 2016/09/14-01:09:01        ">
   <rdf:RDF xmlns:rdf="http://www.w3.org/1999/02/22-rdf-syntax-ns#">
      <rdf:Description rdf:about=""/>
   </rdf:RDF>
</x:xmpmeta>
                                                                                                    
                                                                                                    
                                                                                                    
                                                                                                    
                                                                                                    
                                                                                                    
                                                                                                    
                                                                                                    
                                                                                                    
                                                                                                    
                                                                                                    
                                                                                                    
                                                                                                    
                                                                                                    
                                                                                                    
                                                                                                    
                                                                                                    
                                                                                                    
                                                                                                    
                                                                                                    
                           
<?xpacket end="w"?></metadata>
<defs>
    <style>
      .cls-1 {
        fill: #e54357;
      }

      .cls-2 {
        fill-rule: evenodd;
      }
    </style>
    <clipPath id="clip-path">
      <rect width="42" height="56"/>
    </clipPath>
  </defs>
  <g clip-path="url(#clip-path)">
    <circle class="cls-1" cx="15" cy="15" r="7"/>
    <path class="cls-2" d="M32.254,0H1.05A1.053,1.053,0,0,0,0,1.056V54.943A1.053,1.053,0,0,0,1.05,56h39.9A1.053,1.053,0,0,0,42,54.943V10.379C42,6.693,35.715,0,32.254,0ZM38.9,52.887L3,53V3L32.254,3.113c2.358,0,6.646,4.716,6.646,7.266V52.887ZM14.7,23.245a8.453,8.453,0,1,0-8.4-8.453A8.436,8.436,0,0,0,14.7,23.245Zm0-14.792a6.3,6.3,0,0,1,6.245,7.135l-5.461-.823-3.42-5.722A6.215,6.215,0,0,1,14.7,8.453Zm-4.372,1.785,3.612,6.042a1.05,1.05,0,0,0,.744.5l5.642,0.851A6.3,6.3,0,1,1,10.328,10.238ZM7.35,26.472H29.428v3.113H7.35V26.472Zm0,6.283h14.7v3.113H7.35V32.755Zm0,5.283h18.9v3.113H7.35V38.038Z"/>
  </g>
</svg>
